<svg xmlns="http://www.w3.org/2000/svg" xmlns:xlink="http://www.w3.org/1999/xlink" width="800" height="800" viewBox="0 0 800 800"><defs><radialGradient id="a" cx="400.118" cy="153.359" r="385.132" gradientTransform="translate(0 150.284) scale(1 0.618)" gradientUnits="userSpaceOnUse"><stop offset="0"/><stop offset="0.946" stop-opacity="0"/></radialGradient><linearGradient id="b" x1="270.85" y1="173.021" x2="370.693" y2="173.021" gradientTransform="translate(55.537 -76.882) rotate(15)" gradientUnits="userSpaceOnUse"><stop offset="0" stop-color="#fff"/><stop offset="0.154" stop-color="#f8f8f8"/><stop offset="0.375" stop-color="#e5e5e5"/><stop offset="0.638" stop-color="#c6c6c6"/><stop offset="0.931" stop-color="#9a9a9a"/><stop offset="1" stop-color="#8f8f8f"/></linearGradient><linearGradient id="c" x1="429.597" y1="173.019" x2="529.328" y2="173.019" gradientTransform="translate(522.726 -336.268) rotate(75)" xlink:href="#b"/><radialGradient id="d" cx="403.081" cy="277.512" r="503.121" gradientUnits="userSpaceOnUse"><stop offset="0.504" stop-color="#916f6f"/><stop offset="0.749" stop-color="#755a5a"/></radialGradient><linearGradient id="e" x1="534.44" y1="867.038" x2="534.44" y2="982.373" gradientTransform="translate(-80.811 -577.861) rotate(-12)" gradientUnits="userSpaceOnUse"><stop offset="0.11" stop-color="#916f6f"/><stop offset="1" stop-color="#755a5a"/></linearGradient><linearGradient id="f" x1="161.082" y1="234.497" x2="161.082" y2="349.832" gradientTransform="translate(64.265 -27.106) rotate(12)" xlink:href="#e"/><linearGradient id="g" x1="400.118" y1="546.374" x2="400.118" y2="792.173" gradientUnits="userSpaceOnUse"><stop offset="0" stop-color="#ffd6d6"/><stop offset="1" stop-color="#faa"/></linearGradient></defs><title>icon</title><ellipse cx="400.118" cy="244.987" rx="385.132" ry="237.829" style="opacity:0.2;fill:url(#a)"/><ellipse cx="319.756" cy="172.481" rx="48.603" ry="76.231" transform="translate(-33.746 88.636) rotate(-15)" style="fill:url(#b)"/><ellipse cx="480.479" cy="172.481" rx="76.231" ry="48.541" transform="translate(189.518 591.947) rotate(-75)" style="fill:url(#c)"/><path d="M592.9,405.1a196.279,196.279,0,0,0,2.025-27.939c0-107.59-87.219-194.81-194.81-194.81s-194.81,87.219-194.81,194.81a196.279,196.279,0,0,0,2.025,27.939,243.78,243.78,0,0,0-5.021,291.684c0,75.7,197.805,51.611,197.805,51.611s197.806,24.094,197.806-51.611A243.78,243.78,0,0,0,592.9,405.1Z" style="fill:url(#d)"/><ellipse cx="634.208" cy="215.522" rx="120.745" ry="53.061" transform="translate(-4.064 418.691) rotate(-36.426)" style="fill:url(#e)"/><ellipse cx="161.082" cy="292.165" rx="120.745" ry="53.061" transform="translate(-57.224 39.875) rotate(-12)" style="fill:url(#f)"/><ellipse cx="328.522" cy="200.425" rx="58.491" ry="18.356" transform="translate(-48.737 124.448) rotate(-20)" style="fill:#916f6f"/><ellipse cx="471.713" cy="200.428" rx="18.356" ry="58.491" transform="translate(122.037 575.143) rotate(-70)" style="fill:#916f6f"/><path d="M498.36,546.374c-37.869,0-72.352,12.221-98.242,32.239-25.89-20.018-60.373-32.239-98.242-32.239-80.377,0-145.535,55.024-145.535,122.9s65.158,122.9,145.535,122.9c37.869,0,72.352-12.221,98.242-32.239,25.89,20.018,60.373,32.239,98.242,32.239,80.377,0,145.535-55.024,145.535-122.9S578.737,546.374,498.36,546.374ZM338.409,706.965A37.691,37.691,0,1,1,376.1,669.274,37.691,37.691,0,0,1,338.409,706.965Zm130.835,0a37.691,37.691,0,1,1,37.691-37.691A37.691,37.691,0,0,1,469.244,706.965Z" style="fill:url(#g)"/><path d="M454.509,314.627a62.493,62.493,0,0,0-54.392,31.7,62.53,62.53,0,1,0,0,61.666,62.527,62.527,0,1,0,54.392-93.363Z" style="fill:#fff"/><circle cx="345.726" cy="377.157" r="24.123" style="fill:#2b1100"/><circle cx="454.509" cy="377.157" r="24.123" style="fill:#2b1100"/></svg>